PathFileType	4	(X/Y/Z)	/Users/niels/Desktop/University/Third Semester/Perception and Action/Exam/Gymnastics Motion Tracking/Code for Gym Tracking/Analyzed Data/Webcam_Backflip/id2006_1_baseline_Sports2D/id2006_1_baseline_Sports2D_px_person00.trc
DataRate	CameraRate	NumFrames	NumMarkers	Units	OrigDataRate	OrigDataStartFrame	OrigNumFrames
29.782608695652176	29.782608695652176	8	22	m	29.782608695652176	51	138
Frame#	Time	Hip			RHip			RKnee			RAnkle			RBigToe			RSmallToe			RHeel			LHip			LKnee			LAnkle			LBigToe			LSmallToe			LHeel			Neck			Head			Nose			RShoulder			RElbow			RWrist			LShoulder			LElbow			LWrist		
		X1	Y1	Z1	X2	Y2	Z2	X3	Y3	Z3	X4	Y4	Z4	X5	Y5	Z5	X6	Y6	Z6	X7	Y7	Z7	X8	Y8	Z8	X9	Y9	Z9	X10	Y10	Z10	X11	Y11	Z11	X12	Y12	Z12	X13	Y13	Z13	X14	Y14	Z14	X15	Y15	Z15	X16	Y16	Z16	X17	Y17	Z17	X18	Y18	Z18	X19	Y19	Z19	X20	Y20	Z20	X21	Y21	Z21	X22	Y22	Z22
51	1.7124087591240873	0.9863147858569221	-0.6527701080892646	0.0	0.9914433455400397	-0.6507513966677009	0.0	0.9981903898526855	-1.0385945864360986	0.0	0.9965842376267835	-1.0773408124769732	0.0	1.3936757812052243	-1.0156835938001363	0.0	1.3612734374465325	-1.0318847656754704	0.0	1.1636645507035763	-1.0892622071169566	0.0	0.976501043453175	-0.6704682870727181	0.0	0.9886130012341997	-1.0263217941270422	0.0	0.9864274460205834	-1.0770998521884312	0.0	1.4993579101574435	-0.6945361328127235	0.0	1.5050170898452757	-0.7143432617188088	0.0	1.4342773437393268	-0.8416748046876288	0.0	0.9518497163195527	-0.2239393885953544	0.0	0.9836665764703366	-0.037754676545932404	0.0	1.0075284629400134	-0.1320415611068115	0.0	0.9503942606863343	-0.22804125299310934	0.0	1.093241922741296	-0.05698846396010878	0.0	1.1182773799078045	-0.02472870603763742	0.0	0.9457997918673718	-0.27933615323878697	0.0	1.033355686649564	-0.4341020464339907	0.0	1.245850313972477	-0.138866588831216	0.0
52	1.7459854014598537	0.9888173187839283	-0.6477917411355583	0.0	0.9949823386496278	-0.6455814925974677	0.0	1.002274072765412	-1.036559840866649	0.0	1.0004432119012052	-1.075503896389392	0.0	1.3936757811786518	-1.0156835938465425	0.0	1.3612734374205753	-1.0318847657203343	0.0	1.1636645507430283	-1.0892622071547153	0.0	0.9781279599864438	-0.6649389098292434	0.0	0.9938603569309172	-1.0231038801286374	0.0	0.9938800978779276	-1.0755914574669831	0.0	1.4993579101584096	-0.694536132812619	0.0	1.505017089845453	-0.7143432617193526	0.0	1.4342773437373406	-0.8416748046877331	0.0	0.9512777839947363	-0.2227085687890611	0.0	0.9836474735759103	-0.035987859313715356	0.0	1.006029410761995	-0.13009528676800494	0.0	0.9512386683189326	-0.22514498751689885	0.0	1.0913830474972204	-0.05341714349677837	0.0	1.1133887902422186	-0.025734758745634835	0.0	0.9319542869037089	-0.27753377788966344	0.0	1.0312362092682987	-0.43224664456644846	0.0	1.2458211345405954	-0.1388348233564366	0.0
53	1.77956204379562	0.9911549988931991	-0.644746514305545	0.0	0.9982421212831833	-0.6428503478102175	0.0	1.0055201685706951	-1.0348423582469148	0.0	1.003858390340152	-1.0737581995668968	0.0	1.3936757811609162	-1.0156835938958566	0.0	1.3612734374096096	-1.031884765766702	0.0	1.163664550863582	-1.0892622071654836	0.0	0.9791999209804688	-0.6616391653183822	0.0	0.9984347007501411	-1.0202822172012855	0.0	1.000927073508296	-1.074301840643246	0.0	1.4993579101593384	-0.6945361328122879	0.0	1.5050170898447688	-0.7143432617202761	0.0	1.4342773437408038	-0.8416748046878335	0.0	0.9505282214074995	-0.2223694934701486	0.0	0.9829154632281698	-0.03568676645835392	0.0	1.0046418592889348	-0.1293482648496873	0.0	0.9519683643338666	-0.22374173089989427	0.0	1.0896662073981	-0.05142665211137245	0.0	1.109479233554033	-0.026699923756629357	0.0	0.9192971568411128	-0.2763854758788129	0.0	1.0301577901476875	-0.43065594620780007	0.0	1.245755797769618	-0.13877265675523603	0.0
54	1.8131386861313865	0.9934048175471694	-0.6431996154818175	0.0	1.0011936298881114	-0.6416091931204504	0.0	1.0079789849244416	-1.0338366548347455	0.0	1.0066724455884968	-1.072337798092806	0.0	1.3936757811761802	-1.015683593919982	0.0	1.3612734374421278	-1.0318847657864054	0.0	1.1636645511018042	-1.0892622071038296	0.0	0.9800713684639919	-0.6600127757938813	0.0	1.0022905941427303	-1.0180557800508756	0.0	1.0071982884763946	-1.0734132757340904	0.0	1.4993579101595695	-0.6945361328116244	0.0	1.5050170898424458	-0.7143432617215156	0.0	1.4342773437552043	-0.8416748046878587	0.0	0.949847023645065	-0.2227283168112975	0.0	0.9816274106626601	-0.036363617563110164	0.0	1.0033213961575527	-0.12941819239140745	0.0	0.9526445880298767	-0.22353318588063686	0.0	1.088216953400908	-0.05060347512117908	0.0	1.1066009835281967	-0.027332103546668308	0.0	0.9097297691730439	-0.27603364786206064	0.0	1.0296069013333042	-0.42961605725501356	0.0	1.2456963722868544	-0.13869060449825457	0.0
55	1.846715328467153	0.9955222978401094	-0.6426423636934256	0.0	1.0037232231769924	-0.641027018319648	0.0	1.0096997753921928	-1.0337641567629259	0.0	1.0090037596553436	-1.0713002016279751	0.0	1.3936757812614078	-1.0156835938673188	0.0	1.3612734375587296	-1.0318847657286363	0.0	1.1636645514693653	-1.089262206907034	0.0	0.9809046801095328	-0.659430201336143	0.0	1.0054445373759953	-1.0166961177662373	0.0	1.0124986579847501	-1.0729441980380698	0.0	1.4993579101579595	-0.6945361328105895	0.0	1.5050170898376705	-0.7143432617227109	0.0	1.4342773437866876	-0.8416748046876854	0.0	0.9494248507821669	-0.22351633220757983	0.0	0.9800452434165574	-0.03740811917302964	0.0	1.0021015723332696	-0.12982703125087275	0.0	0.9532893934200151	-0.22400437856494076	0.0	1.0871153774451916	-0.05052718269924114	0.0	1.1048853329906267	-0.02753483190358349	0.0	0.9036002866054658	-0.2763992316769212	0.0	1.0291006220138073	-0.42933692801364265	0.0	1.2456901645132021	-0.13855612110712434	0.0
56	1.8802919708029195	0.9973773099753217	-0.6427289442524085	0.0	1.0056377931526617	-0.6408319787981714	0.0	1.0107225398448596	-1.0344954730298717	0.0	1.0109676845520956	-1.0704680478261952	0.0	1.3936757814604124	-1.0156835936630604	0.0	1.3612734378028066	-1.0318847655209522	0.0	1.1636645519099953	-1.0892622065114936	0.0	0.9818146842864222	-0.6594802460867963	0.0	1.0078953666463741	-1.016377537518291	0.0	1.016666895163624	-1.072686951905561	0.0	1.4993579101529417	-0.6945361328093311	0.0	1.505017089830076	-0.7143432617230174	0.0	1.4342773438389744	-0.8416748046871444	0.0	0.9493497140380273	-0.2244061259829758	0.0	0.9784484607654501	-0.038349641529132804	0.0	1.0011490871663087	-0.13022270821155013	0.0	0.9538730773026497	-0.2246192757830671	0.0	1.0863907688817682	-0.05082134656496987	0.0	1.1043834549015927	-0.027285613065702277	0.0	0.9008032998962622	-0.27716718144034236	0.0	1.0284992584318595	-0.42984518404172245	0.0	1.245796027611337	-0.13831094116375806	0.0
57	1.913868613138686	0.9989093194601544	-0.6432192623742956	0.0	1.0068101044758349	-0.6409927868792032	0.0	1.0111435180216661	-1.0355434971716841	0.0	1.0124837896628578	-1.069738571857766	0.0	1.3936757818049623	-1.0156835932250772	0.0	1.3612734381961513	-1.031884765085853	0.0	1.1636645522396223	-1.089262205893039	0.0	0.9830567060531514	-0.6598645916324053	0.0	1.0096425544265217	-1.0168815557451016	0.0	1.019603758331715	-1.0724771270324522	0.0	1.4993579101429488	-0.6945361328083541	0.0	1.5050170898206168	-0.7143432617209706	0.0	1.4342773439074814	-0.8416748046860661	0.0	0.9495881786000229	-0.22513812875333192	0.0	0.9771577731365085	-0.038930819293250415	0.0	1.0007322593345918	-0.13049254790553966	0.0	0.9542901526760268	-0.22505024921753997	0.0	1.08606381671313	-0.051214689141418704	0.0	1.1050126180510995	-0.0264733296119094	0.0	0.9013547481274619	-0.2779840686577484	0.0	1.0279611225879497	-0.4309701823220439	0.0	1.2460802665192696	-0.1378999353329635	0.0
58	1.9474452554744524	1.0001423456593137	-0.6438415038681102	0.0	1.0072750511952449	-0.6413244915573324	0.0	1.0111181457754588	-1.0362678812873338	0.0	1.0133014010448536	-1.0692678082605225	0.0	1.3936757822768824	-1.0156835925071825	0.0	1.3612734386939895	-1.031884764384242	0.0	1.1636645520848923	-1.0892622051388234	0.0	0.9848932713198454	-0.660299546313284	0.0	1.0106767158929992	-1.0176184410983455	0.0	1.0211697012008143	-1.0723680867334333	0.0	1.4993579101274352	-0.6945361328086973	0.0	1.5050170898128228	-0.7143432617145609	0.0	1.4342773439705023	-0.8416748046843913	0.0	0.9500535757224406	-0.2255892777229177	0.0	0.9764638893267685	-0.039093328358379247	0.0	1.0010968116707621	-0.13071097406057908	0.0	0.9544326457792885	-0.22527227836589828	0.0	1.0861997387424291	-0.05152630508931009	0.0	1.106664408516172	-0.02502433118906196	0.0	0.9056220445163201	-0.2786393423197529	0.0	1.0277641548148315	-0.432515535681816	0.0	1.24659212058106	-0.13731921274756032	0.0
